<svg width="123" height="32" viewBox="0 0 123 32" fill="none" xmlns="http://www.w3.org/2000/svg">
<path fill-rule="evenodd" clip-rule="evenodd" d="M16.8 20C14.4804 20 12.6 18.2092 12.6 16C12.6 13.7909 14.4804 12 16.8 12C19.1196 12 21 13.7909 21 16C21 18.2092 19.1196 20 16.8 20ZM28 5.33335C29.54 5.33335 30.8 6.53335 30.8 8.00002V24C30.8 25.4667 29.54 26.6667 28 26.6667H5.59999C4.05999 26.6667 2.79999 25.4667 2.79999 24V8.00002C2.79999 6.53335 4.05999 5.33335 5.59999 5.33335H10.038L11.76 3.53335C12.292 2.98669 13.048 2.66669 13.832 2.66669H19.768C20.552 2.66669 21.308 2.98669 21.826 3.53335L23.562 5.33335H28ZM16.8 22.6667C20.664 22.6667 23.8 19.68 23.8 16C23.8 12.32 20.664 9.33336 16.8 9.33336C12.936 9.33336 9.79999 12.32 9.79999 16C9.79999 19.68 12.936 22.6667 16.8 22.6667Z" fill="#1D1D1D"/>
<path d="M48.814 13.272C48.814 14.292 48.55 15.228 48.022 16.08C47.494 16.932 46.726 17.628 45.718 18.168C44.71 18.708 43.51 19.026 42.118 19.122L41.344 23.46C41.044 25.128 40.228 25.962 38.896 25.962C38.164 25.962 37.486 25.746 36.862 25.314C36.25 24.882 35.758 24.222 35.386 23.334C35.014 22.446 34.828 21.354 34.828 20.058C34.828 17.622 35.218 15.558 35.998 13.866C36.79 12.162 37.846 10.89 39.166 10.05C40.498 9.198 41.962 8.772 43.558 8.772C44.686 8.772 45.64 8.97 46.42 9.366C47.212 9.762 47.806 10.302 48.202 10.986C48.61 11.658 48.814 12.42 48.814 13.272ZM42.442 17.268C44.902 16.956 46.132 15.678 46.132 13.434C46.132 12.642 45.868 12 45.34 11.508C44.824 11.004 44.02 10.752 42.928 10.752C41.692 10.752 40.612 11.142 39.688 11.922C38.776 12.702 38.068 13.788 37.564 15.18C37.072 16.56 36.826 18.138 36.826 19.914C36.826 20.658 36.898 21.318 37.042 21.894C37.198 22.47 37.39 22.92 37.618 23.244C37.858 23.556 38.086 23.712 38.302 23.712C38.602 23.712 38.83 23.298 38.986 22.47L39.58 19.068C39.112 18.996 38.908 18.966 38.968 18.978C38.608 18.918 38.374 18.81 38.266 18.654C38.158 18.486 38.104 18.276 38.104 18.024C38.104 17.76 38.176 17.55 38.32 17.394C38.476 17.238 38.686 17.16 38.95 17.16C39.07 17.16 39.16 17.166 39.22 17.178C39.508 17.226 39.73 17.256 39.886 17.268C40.042 16.332 40.264 15.078 40.552 13.506C40.624 13.098 40.786 12.81 41.038 12.642C41.302 12.462 41.608 12.372 41.956 12.372C42.352 12.372 42.634 12.45 42.802 12.606C42.982 12.75 43.072 12.984 43.072 13.308C43.072 13.5 43.06 13.656 43.036 13.776L42.442 17.268ZM59.3384 19.986C59.4944 19.986 59.6144 20.058 59.6984 20.202C59.7944 20.346 59.8424 20.544 59.8424 20.796C59.8424 21.276 59.7284 21.648 59.5004 21.912C58.9484 22.548 58.3784 23.07 57.7904 23.478C57.2144 23.886 56.5544 24.09 55.8104 24.09C55.1984 24.09 54.7364 23.916 54.4244 23.568C54.1124 23.208 53.9564 22.692 53.9564 22.02C53.9564 21.684 54.0404 21.084 54.2084 20.22C54.3644 19.464 54.4424 18.942 54.4424 18.654C54.4424 18.462 54.3764 18.366 54.2444 18.366C54.0884 18.366 53.8664 18.57 53.5784 18.978C53.2904 19.374 53.0024 19.902 52.7144 20.562C52.4264 21.222 52.1924 21.918 52.0124 22.65C51.7844 23.61 51.2204 24.09 50.3204 24.09C49.9604 24.09 49.7204 23.964 49.6004 23.712C49.4924 23.448 49.4384 22.98 49.4384 22.308C49.4384 21.924 49.4444 21.618 49.4564 21.39L49.4744 19.95C49.4744 18.102 49.6604 16.176 50.0324 14.172C50.4164 12.168 50.9744 10.488 51.7064 9.132C52.4504 7.764 53.3384 7.08 54.3704 7.08C54.9224 7.08 55.3664 7.32 55.7024 7.8C56.0504 8.268 56.2244 8.88 56.2244 9.636C56.2244 10.848 55.8704 12.108 55.1624 13.416C54.4544 14.712 53.3024 16.23 51.7064 17.97C51.6704 18.594 51.6524 19.236 51.6524 19.896C52.0484 18.876 52.4864 18.048 52.9664 17.412C53.4584 16.764 53.9384 16.302 54.4064 16.026C54.8864 15.75 55.3244 15.612 55.7204 15.612C56.5004 15.612 56.8904 16.002 56.8904 16.782C56.8904 17.25 56.7584 18.096 56.4944 19.32C56.2664 20.364 56.1524 21.054 56.1524 21.39C56.1524 21.87 56.3264 22.11 56.6744 22.11C56.9144 22.11 57.1964 21.966 57.5204 21.678C57.8564 21.378 58.3004 20.898 58.8524 20.238C58.9964 20.07 59.1584 19.986 59.3384 19.986ZM53.9924 8.862C53.7764 8.862 53.5364 9.174 53.2724 9.798C53.0084 10.41 52.7504 11.244 52.4984 12.3C52.2584 13.344 52.0604 14.484 51.9044 15.72C52.6484 14.844 53.2604 13.89 53.7404 12.858C54.2324 11.826 54.4784 10.89 54.4784 10.05C54.4784 9.666 54.4364 9.372 54.3524 9.168C54.2684 8.964 54.1484 8.862 53.9924 8.862ZM67.5635 18.474C67.7195 18.474 67.8395 18.552 67.9235 18.708C68.0075 18.864 68.0495 19.062 68.0495 19.302C68.0495 19.878 67.8755 20.22 67.5275 20.328C66.8075 20.58 66.0155 20.724 65.1515 20.76C64.9235 21.768 64.4735 22.578 63.8015 23.19C63.1295 23.79 62.3675 24.09 61.5155 24.09C60.7955 24.09 60.1775 23.916 59.6615 23.568C59.1575 23.22 58.7735 22.758 58.5095 22.182C58.2455 21.606 58.1135 20.982 58.1135 20.31C58.1135 19.398 58.2875 18.588 58.6355 17.88C58.9835 17.16 59.4635 16.602 60.0755 16.206C60.6875 15.798 61.3655 15.594 62.1095 15.594C63.0215 15.594 63.7535 15.912 64.3055 16.548C64.8695 17.172 65.1995 17.946 65.2955 18.87C65.8595 18.834 66.5315 18.714 67.3115 18.51C67.4075 18.486 67.4915 18.474 67.5635 18.474ZM61.6595 22.182C62.0435 22.182 62.3735 22.026 62.6495 21.714C62.9375 21.402 63.1295 20.952 63.2255 20.364C62.8535 20.112 62.5655 19.782 62.3615 19.374C62.1695 18.966 62.0735 18.534 62.0735 18.078C62.0735 17.886 62.0915 17.694 62.1275 17.502H62.0375C61.5575 17.502 61.1555 17.736 60.8315 18.204C60.5195 18.66 60.3635 19.308 60.3635 20.148C60.3635 20.808 60.4895 21.312 60.7415 21.66C61.0055 22.008 61.3115 22.182 61.6595 22.182ZM74.9897 19.986C75.1457 19.986 75.2657 20.058 75.3497 20.202C75.4457 20.346 75.4937 20.544 75.4937 20.796C75.4937 21.276 75.3797 21.648 75.1517 21.912C74.6357 22.548 74.0717 23.07 73.4597 23.478C72.8477 23.886 72.1457 24.09 71.3537 24.09C68.9057 24.09 67.6817 22.368 67.6817 18.924C67.6817 18.396 67.6997 17.862 67.7357 17.322H67.0337C66.6737 17.322 66.4277 17.256 66.2957 17.124C66.1757 16.992 66.1157 16.782 66.1157 16.494C66.1157 15.822 66.3857 15.486 66.9257 15.486H67.9517C68.1557 14.166 68.4677 12.96 68.8877 11.868C69.3077 10.776 69.8117 9.906 70.3997 9.258C70.9997 8.61 71.6417 8.286 72.3257 8.286C72.8297 8.286 73.2257 8.508 73.5137 8.952C73.8017 9.396 73.9457 9.954 73.9457 10.626C73.9457 12.486 73.1657 14.106 71.6057 15.486H73.6217C73.8137 15.486 73.9517 15.528 74.0357 15.612C74.1197 15.696 74.1617 15.852 74.1617 16.08C74.1617 16.908 73.4837 17.322 72.1277 17.322H69.9317C69.9077 17.922 69.8957 18.39 69.8957 18.726C69.8957 19.974 70.0397 20.85 70.3277 21.354C70.6277 21.858 71.0957 22.11 71.7317 22.11C72.2477 22.11 72.7037 21.954 73.0997 21.642C73.4957 21.33 73.9637 20.862 74.5037 20.238C74.6477 20.07 74.8097 19.986 74.9897 19.986ZM71.8397 10.014C71.6597 10.014 71.4557 10.242 71.2277 10.698C71.0117 11.142 70.8017 11.766 70.5977 12.57C70.4057 13.362 70.2437 14.244 70.1117 15.216C70.8197 14.604 71.3477 13.92 71.6957 13.164C72.0557 12.396 72.2357 11.7 72.2357 11.076C72.2357 10.368 72.1037 10.014 71.8397 10.014ZM83.2081 18.474C83.3641 18.474 83.4841 18.552 83.5681 18.708C83.6521 18.864 83.6941 19.062 83.6941 19.302C83.6941 19.878 83.5201 20.22 83.1721 20.328C82.4521 20.58 81.6601 20.724 80.7961 20.76C80.5681 21.768 80.1181 22.578 79.4461 23.19C78.7741 23.79 78.0121 24.09 77.1601 24.09C76.4401 24.09 75.8221 23.916 75.3061 23.568C74.8021 23.22 74.4181 22.758 74.1541 22.182C73.8901 21.606 73.7581 20.982 73.7581 20.31C73.7581 19.398 73.9321 18.588 74.2801 17.88C74.6281 17.16 75.1081 16.602 75.7201 16.206C76.3321 15.798 77.0101 15.594 77.7541 15.594C78.6661 15.594 79.3981 15.912 79.9501 16.548C80.5141 17.172 80.8441 17.946 80.9401 18.87C81.5041 18.834 82.1761 18.714 82.9561 18.51C83.0521 18.486 83.1361 18.474 83.2081 18.474ZM77.3041 22.182C77.6881 22.182 78.0181 22.026 78.2941 21.714C78.5821 21.402 78.7741 20.952 78.8701 20.364C78.4981 20.112 78.2101 19.782 78.0061 19.374C77.8141 18.966 77.7181 18.534 77.7181 18.078C77.7181 17.886 77.7361 17.694 77.7721 17.502H77.6821C77.2021 17.502 76.8001 17.736 76.4761 18.204C76.1641 18.66 76.0081 19.308 76.0081 20.148C76.0081 20.808 76.1341 21.312 76.3861 21.66C76.6501 22.008 76.9561 22.182 77.3041 22.182ZM83.4272 24.09C82.9712 24.09 82.6472 23.85 82.4552 23.37C82.2752 22.89 82.1852 22.122 82.1852 21.066C82.1852 19.506 82.4072 18.024 82.8512 16.62C82.9592 16.272 83.1332 16.02 83.3732 15.864C83.6252 15.696 83.9732 15.612 84.4172 15.612C84.6572 15.612 84.8252 15.642 84.9212 15.702C85.0172 15.762 85.0652 15.876 85.0652 16.044C85.0652 16.236 84.9752 16.668 84.7952 17.34C84.6752 17.82 84.5792 18.24 84.5072 18.6C84.4352 18.948 84.3752 19.386 84.3272 19.914C84.6512 18.978 85.0352 18.186 85.4792 17.538C85.9352 16.89 86.3972 16.41 86.8652 16.098C87.3452 15.774 87.7952 15.612 88.2152 15.612C88.6352 15.612 88.9292 15.708 89.0972 15.9C89.2772 16.092 89.3672 16.386 89.3672 16.782C89.3672 17.166 89.2532 17.862 89.0252 18.87C88.9292 19.302 88.8632 19.626 88.8272 19.842C89.4272 18.366 90.0932 17.292 90.8252 16.62C91.5572 15.948 92.2412 15.612 92.8772 15.612C93.6572 15.612 94.0472 16.002 94.0472 16.782C94.0472 17.25 93.9152 18.096 93.6512 19.32C93.4232 20.364 93.3092 21.054 93.3092 21.39C93.3092 21.87 93.4832 22.11 93.8312 22.11C94.0712 22.11 94.3532 21.966 94.6772 21.678C95.0132 21.378 95.4572 20.898 96.0092 20.238C96.1532 20.07 96.3152 19.986 96.4952 19.986C96.6512 19.986 96.7712 20.058 96.8552 20.202C96.9512 20.346 96.9992 20.544 96.9992 20.796C96.9992 21.276 96.8852 21.648 96.6572 21.912C96.1412 22.548 95.5832 23.07 94.9832 23.478C94.3952 23.886 93.7232 24.09 92.9672 24.09C92.3552 24.09 91.8932 23.916 91.5812 23.568C91.2692 23.208 91.1132 22.692 91.1132 22.02C91.1132 21.684 91.1972 21.084 91.3652 20.22C91.5212 19.464 91.5992 18.942 91.5992 18.654C91.5992 18.462 91.5332 18.366 91.4012 18.366C91.2452 18.366 91.0232 18.57 90.7352 18.978C90.4472 19.374 90.1592 19.902 89.8712 20.562C89.5832 21.222 89.3492 21.918 89.1692 22.65C89.0372 23.226 88.8812 23.61 88.7012 23.802C88.5332 23.994 88.2572 24.09 87.8732 24.09C87.4772 24.09 87.1772 23.904 86.9732 23.532C86.7812 23.148 86.6852 22.686 86.6852 22.146C86.6852 21.69 86.7452 21.03 86.8652 20.166C86.9612 19.398 87.0092 18.894 87.0092 18.654C87.0092 18.462 86.9432 18.366 86.8112 18.366C86.6312 18.366 86.4032 18.582 86.1272 19.014C85.8512 19.446 85.5812 19.998 85.3172 20.67C85.0652 21.342 84.8612 22.002 84.7052 22.65C84.5732 23.214 84.4172 23.598 84.2372 23.802C84.0692 23.994 83.7992 24.09 83.4272 24.09ZM97.7577 24.09C97.0137 24.09 96.4197 23.82 95.9757 23.28C95.5317 22.74 95.3097 22.032 95.3097 21.156C95.3097 20.196 95.5317 19.29 95.9757 18.438C96.4197 17.574 97.0077 16.884 97.7397 16.368C98.4837 15.84 99.2697 15.576 100.098 15.576C100.362 15.576 100.536 15.63 100.62 15.738C100.716 15.834 100.794 16.014 100.854 16.278C101.106 16.23 101.37 16.206 101.646 16.206C102.234 16.206 102.528 16.416 102.528 16.836C102.528 17.088 102.438 17.688 102.258 18.636C101.982 20.016 101.844 20.976 101.844 21.516C101.844 21.696 101.886 21.84 101.97 21.948C102.066 22.056 102.186 22.11 102.33 22.11C102.558 22.11 102.834 21.966 103.158 21.678C103.482 21.378 103.92 20.898 104.472 20.238C104.616 20.07 104.778 19.986 104.958 19.986C105.114 19.986 105.234 20.058 105.318 20.202C105.414 20.346 105.462 20.544 105.462 20.796C105.462 21.276 105.348 21.648 105.12 21.912C104.628 22.524 104.106 23.04 103.554 23.46C103.002 23.88 102.468 24.09 101.952 24.09C101.556 24.09 101.19 23.958 100.854 23.694C100.53 23.418 100.284 23.046 100.116 22.578C99.4917 23.586 98.7057 24.09 97.7577 24.09ZM98.4057 22.272C98.6697 22.272 98.9217 22.116 99.1617 21.804C99.4017 21.492 99.5757 21.078 99.6837 20.562L100.35 17.25C99.8457 17.262 99.3777 17.454 98.9457 17.826C98.5257 18.186 98.1897 18.666 97.9377 19.266C97.6857 19.866 97.5597 20.502 97.5597 21.174C97.5597 21.546 97.6317 21.822 97.7757 22.002C97.9317 22.182 98.1417 22.272 98.4057 22.272ZM112.027 19.986C112.183 19.986 112.303 20.058 112.387 20.202C112.483 20.346 112.531 20.544 112.531 20.796C112.531 21.276 112.417 21.648 112.189 21.912C111.673 22.548 111.109 23.07 110.497 23.478C109.885 23.886 109.183 24.09 108.391 24.09C105.943 24.09 104.719 22.368 104.719 18.924C104.719 18.396 104.737 17.862 104.773 17.322H104.071C103.711 17.322 103.465 17.256 103.333 17.124C103.213 16.992 103.153 16.782 103.153 16.494C103.153 15.822 103.423 15.486 103.963 15.486H104.989C105.193 14.166 105.505 12.96 105.925 11.868C106.345 10.776 106.849 9.906 107.437 9.258C108.037 8.61 108.679 8.286 109.363 8.286C109.867 8.286 110.263 8.508 110.551 8.952C110.839 9.396 110.983 9.954 110.983 10.626C110.983 12.486 110.203 14.106 108.643 15.486H110.659C110.851 15.486 110.989 15.528 111.073 15.612C111.157 15.696 111.199 15.852 111.199 16.08C111.199 16.908 110.521 17.322 109.165 17.322H106.969C106.945 17.922 106.933 18.39 106.933 18.726C106.933 19.974 107.077 20.85 107.365 21.354C107.665 21.858 108.133 22.11 108.769 22.11C109.285 22.11 109.741 21.954 110.137 21.642C110.533 21.33 111.001 20.862 111.541 20.238C111.685 20.07 111.847 19.986 112.027 19.986ZM108.877 10.014C108.697 10.014 108.493 10.242 108.265 10.698C108.049 11.142 107.839 11.766 107.635 12.57C107.443 13.362 107.281 14.244 107.149 15.216C107.857 14.604 108.385 13.92 108.733 13.164C109.093 12.396 109.273 11.7 109.273 11.076C109.273 10.368 109.141 10.014 108.877 10.014ZM113.423 14.424C112.919 14.424 112.541 14.31 112.289 14.082C112.037 13.842 111.911 13.512 111.911 13.092C111.911 12.672 112.073 12.324 112.397 12.048C112.733 11.76 113.147 11.616 113.639 11.616C114.083 11.616 114.443 11.724 114.719 11.94C114.995 12.156 115.133 12.462 115.133 12.858C115.133 13.338 114.977 13.722 114.665 14.01C114.353 14.286 113.939 14.424 113.423 14.424ZM113.279 24.09C112.499 24.09 111.929 23.814 111.569 23.262C111.221 22.71 111.047 21.978 111.047 21.066C111.047 20.526 111.113 19.836 111.245 18.996C111.389 18.144 111.569 17.352 111.785 16.62C111.893 16.236 112.037 15.972 112.217 15.828C112.397 15.684 112.685 15.612 113.081 15.612C113.693 15.612 113.999 15.816 113.999 16.224C113.999 16.524 113.885 17.22 113.657 18.312C113.369 19.632 113.225 20.526 113.225 20.994C113.225 21.354 113.273 21.63 113.369 21.822C113.465 22.014 113.627 22.11 113.855 22.11C114.071 22.11 114.341 21.96 114.665 21.66C114.989 21.36 115.421 20.886 115.961 20.238C116.105 20.07 116.267 19.986 116.447 19.986C116.603 19.986 116.723 20.058 116.807 20.202C116.903 20.346 116.951 20.544 116.951 20.796C116.951 21.276 116.837 21.648 116.609 21.912C115.421 23.364 114.311 24.09 113.279 24.09ZM118.843 24.09C117.703 24.09 116.809 23.76 116.161 23.1C115.525 22.428 115.207 21.546 115.207 20.454C115.207 19.482 115.399 18.63 115.783 17.898C116.167 17.166 116.665 16.602 117.277 16.206C117.889 15.81 118.531 15.612 119.203 15.612C119.863 15.612 120.373 15.81 120.733 16.206C121.105 16.59 121.291 17.088 121.291 17.7C121.291 18.204 121.177 18.63 120.949 18.978C120.733 19.326 120.445 19.5 120.085 19.5C119.857 19.5 119.671 19.446 119.527 19.338C119.395 19.23 119.329 19.08 119.329 18.888C119.329 18.804 119.341 18.708 119.365 18.6C119.389 18.492 119.407 18.414 119.419 18.366C119.479 18.186 119.509 18.018 119.509 17.862C119.509 17.706 119.467 17.586 119.383 17.502C119.311 17.418 119.203 17.376 119.059 17.376C118.783 17.376 118.525 17.502 118.285 17.754C118.045 17.994 117.853 18.324 117.709 18.744C117.565 19.164 117.493 19.626 117.493 20.13C117.493 20.814 117.631 21.336 117.907 21.696C118.195 22.044 118.597 22.218 119.113 22.218C119.521 22.218 119.893 22.098 120.229 21.858C120.577 21.618 120.919 21.264 121.255 20.796C121.399 20.616 121.561 20.526 121.741 20.526C121.897 20.526 122.017 20.598 122.101 20.742C122.197 20.886 122.245 21.084 122.245 21.336C122.245 21.768 122.143 22.14 121.939 22.452C121.615 22.956 121.189 23.358 120.661 23.658C120.133 23.946 119.527 24.09 118.843 24.09Z" fill="black"/>
</svg>
